<svg width="669" height="533" viewBox="0 0 669 533" fill="none" xmlns="http://www.w3.org/2000/svg">
<g clip-path="url(#clip0_1_10)">
<mask id="mask0_1_10" style="mask-type:alpha" maskUnits="userSpaceOnUse" x="34" y="18" width="497" height="497">
<circle cx="282.5" cy="266.5" r="248.5" transform="rotate(180 282.5 266.5)" fill="black"/>
</mask>
<g mask="url(#mask0_1_10)">
<rect x="669.595" y="421.536" width="670.023" height="86.5115" transform="rotate(180 669.595 421.536)" fill="#FF0000"/>
<rect x="548.655" y="68.6812" width="670.023" height="42.373" transform="rotate(156 548.655 68.6812)" fill="#FF0000"/>
<rect x="466.558" y="26.6084" width="670.023" height="42.373" transform="rotate(109.521 466.558 26.6084)" fill="#FF0000"/>
<rect x="561.515" y="368.57" width="749.671" height="47.41" transform="rotate(-141.5 561.515 368.57)" fill="#FF0000"/>
</g>
<path d="M310.188 419.734C310.188 430.366 313.053 438.178 318.785 443.17C324.609 448.07 331.682 450.52 340.002 450.52C348.322 450.52 355.348 448.07 361.08 443.17C366.904 438.178 369.816 430.366 369.816 419.734V353.727C369.816 343.095 366.904 335.329 361.08 330.43C355.348 325.438 348.322 322.941 340.002 322.941C331.682 322.941 324.609 325.438 318.785 330.43C313.053 335.329 310.188 343.095 310.188 353.727V419.734ZM282.453 410.305V363.156C282.453 347.902 288.185 334.636 299.648 323.357C310.372 312.911 323.824 307.688 340.002 307.688C352.205 307.688 362.143 311.617 369.816 319.475V260.539L396.164 248.059H397.551V410.305C397.551 425.559 391.819 438.825 380.355 450.104C369.632 460.55 356.18 465.773 340.002 465.773C324.008 465.773 310.557 460.55 299.648 450.104C288.185 439.01 282.453 425.743 282.453 410.305ZM446.086 468.547V363.156C446.086 347.902 451.818 334.636 463.281 323.357C474.005 312.911 487.456 307.688 503.635 307.688C518.334 307.688 531.046 313.049 541.77 323.773C543.803 325.807 545.652 328.211 547.316 330.984C548.98 328.303 550.829 325.946 552.863 323.912C564.419 313.096 577.131 307.688 590.998 307.688C606.992 307.688 620.443 312.911 631.352 323.357C642.815 334.451 648.547 347.717 648.547 363.156V456.066L622.199 468.547H620.812V353.727C620.812 343.095 617.9 335.329 612.076 330.43C606.344 325.438 599.318 322.941 590.998 322.941C582.678 322.941 575.605 325.438 569.781 330.43C564.049 335.329 561.184 343.095 561.184 353.727V456.066L534.836 468.547H533.449V353.727C533.449 343.095 530.537 335.329 524.713 330.43C518.981 325.438 511.955 322.941 503.635 322.941C495.314 322.941 488.242 325.438 482.418 330.43C476.686 335.329 473.82 343.095 473.82 353.727V456.066L447.473 468.547H446.086Z" fill="white"/>
</g>
<defs>
<clipPath id="clip0_1_10">
<rect width="669" height="533" fill="white"/>
</clipPath>
</defs>
</svg>
